<svg width="800" height="400" xmlns="http://www.w3.org/2000/svg">

 <g>
  <title>background</title>
  <rect fill="none" id="canvas_background" height="402" width="802" y="-1" x="-1"/>
 </g>
 <g>
  <title>Layer 1</title>
  <g id="svg_1" transform="matrix(0.2223433624172696,0,0,-0.2223433624172696,740.0004961095079,915.3527429423846) ">
   <path fill="#ffffff" id="svg_2" d="m-1529.168683,2449.333624q-26,0 -44,18l-624,602q-10,8 -27.5,26q-17.5,18 -55.5,65.5q-38,47.5 -68,97.5q-30,50 -53.5,121q-23.5,71 -23.5,138q0,220 127,344q127,124 351,124q62,0 126.5,-21.5q64.5,-21.5 120,-58q55.5,-36.5 95.5,-68.5q40,-32 76,-68q36,36 76,68q40,32 95.5,68.5q55.5,36.5 120,58q64.5,21.5 126.5,21.5q224,0 351,-124q127,-124 127,-344q0,-221 -229,-450l-623,-600q-18,-18 -44,-18"/>
  </g>
 </g>
</svg>